<svg width="326" height="326" viewBox="0 0 326 326" fill="none" xmlns="http://www.w3.org/2000/svg">
<path d="M3 11C3 6.58172 6.58172 3 11 3H43V43H3V11Z" fill="#b58863"/>
<rect x="43" y="3" width="40" height="40" fill="#f0d9b5"/>
<rect x="83" y="3" width="40" height="40" fill="#b58863"/>
<rect x="123" y="3" width="40" height="40" fill="#f0d9b5"/>
<rect x="163" y="3" width="40" height="40" fill="#b58863"/>
<rect x="203" y="3" width="40" height="40" fill="#f0d9b5"/>
<rect x="243" y="3" width="40" height="40" fill="#b58863"/>
<path d="M283 3H315C319.418 3 323 6.58172 323 11V43H283V3Z" fill="#f0d9b5"/>
<rect x="3" y="43" width="40" height="40" fill="#f0d9b5"/>
<rect x="43" y="43" width="40" height="40" fill="#b58863"/>
<rect x="83" y="43" width="40" height="40" fill="#f0d9b5"/>
<rect x="123" y="43" width="40" height="40" fill="#b58863"/>
<rect x="163" y="43" width="40" height="40" fill="#f0d9b5"/>
<rect x="203" y="43" width="40" height="40" fill="#b58863"/>
<rect x="243" y="43" width="40" height="40" fill="#f0d9b5"/>
<rect x="283" y="43" width="40" height="40" fill="#b58863"/>
<rect x="3" y="83" width="40" height="40" fill="#b58863"/>
<rect x="43" y="83" width="40" height="40" fill="#f0d9b5"/>
<rect x="83" y="83" width="40" height="40" fill="#b58863"/>
<rect x="123" y="83" width="40" height="40" fill="#f0d9b5"/>
<rect x="163" y="83" width="40" height="40" fill="#b58863"/>
<rect x="203" y="83" width="40" height="40" fill="#f0d9b5"/>
<rect x="243" y="83" width="40" height="40" fill="#b58863"/>
<rect x="283" y="83" width="40" height="40" fill="#f0d9b5"/>
<rect x="3" y="123" width="40" height="40" fill="#f0d9b5"/>
<rect x="43" y="123" width="40" height="40" fill="#b58863"/>
<rect x="83" y="123" width="40" height="40" fill="#f0d9b5"/>
<rect x="123" y="123" width="40" height="40" fill="#b58863"/>
<rect x="163" y="123" width="40" height="40" fill="#f0d9b5"/>
<rect x="203" y="123" width="40" height="40" fill="#b58863"/>
<rect x="243" y="123" width="40" height="40" fill="#f0d9b5"/>
<rect x="283" y="123" width="40" height="40" fill="#b58863"/>
<rect x="3" y="163" width="40" height="40" fill="#b58863"/>
<rect x="43" y="163" width="40" height="40" fill="#f0d9b5"/>
<rect x="83" y="163" width="40" height="40" fill="#b58863"/>
<rect x="123" y="163" width="40" height="40" fill="#f0d9b5"/>
<rect x="163" y="163" width="40" height="40" fill="#b58863"/>
<rect x="203" y="163" width="40" height="40" fill="#f0d9b5"/>
<rect x="243" y="163" width="40" height="40" fill="#b58863"/>
<rect x="283" y="163" width="40" height="40" fill="#f0d9b5"/>
<rect x="3" y="203" width="40" height="40" fill="#f0d9b5"/>
<rect x="43" y="203" width="40" height="40" fill="#b58863"/>
<rect x="83" y="203" width="40" height="40" fill="#f0d9b5"/>
<rect x="123" y="203" width="40" height="40" fill="#b58863"/>
<rect x="163" y="203" width="40" height="40" fill="#f0d9b5"/>
<rect x="203" y="203" width="40" height="40" fill="#b58863"/>
<rect x="243" y="203" width="40" height="40" fill="#f0d9b5"/>
<rect x="283" y="203" width="40" height="40" fill="#b58863"/>
<rect x="3" y="243" width="40" height="40" fill="#b58863"/>
<rect x="43" y="243" width="40" height="40" fill="#f0d9b5"/>
<rect x="83" y="243" width="40" height="40" fill="#b58863"/>
<rect x="123" y="243" width="40" height="40" fill="#f0d9b5"/>
<rect x="163" y="243" width="40" height="40" fill="#b58863"/>
<rect x="203" y="243" width="40" height="40" fill="#f0d9b5"/>
<rect x="243" y="243" width="40" height="40" fill="#b58863"/>
<rect x="283" y="243" width="40" height="40" fill="#f0d9b5"/>
<path d="M3 283H43V323H11C6.58172 323 3 319.418 3 315V283Z" fill="#f0d9b5"/>
<rect x="43" y="283" width="40" height="40" fill="#b58863"/>
<rect x="83" y="283" width="40" height="40" fill="#f0d9b5"/>
<rect x="123" y="283" width="40" height="40" fill="#b58863"/>
<rect x="163" y="283" width="40" height="40" fill="#f0d9b5"/>
<rect x="203" y="283" width="40" height="40" fill="#b58863"/>
<rect x="243" y="283" width="40" height="40" fill="#f0d9b5"/>
<path d="M283 283H323V315C323 319.418 319.418 323 315 323H283V283Z" fill="#b58863"/>
</svg>
